<svg xmlns="http://www.w3.org/2000/svg" viewBox="0 0 1080 1440" font-family="Segoe UI, Arial, sans-serif">
  <defs>
    <style>
      .t{fill:#1f2937} .m{fill:#64748b} .w{fill:#ffffff} .mono{font-family:Consolas,'Courier New',monospace}
      .sk{fill:#1f2937;font-family:Consolas,'Courier New',monospace;font-size:18px}
      .cv{fill:#7c3aed;font-size:16px;font-weight:700}
    </style>
  </defs>

  <rect width="1080" height="1440" fill="#eef1f7"/>

  <!-- HEADER -->
  <rect x="40" y="36" width="1000" height="190" rx="20" fill="#0e1430"/>
  <text x="72" y="108" class="w" font-size="50" font-weight="700">Spec-Driven Development</text>
  <text x="72" y="150" font-size="23" fill="#c7d2fe">uma CLI open source para estruturar o SDD no Claude Code</text>
  <text x="72" y="190" class="mono" font-size="20" fill="#93c5fd">npx @igoruehara/spec-driven</text>
  <rect x="838" y="62" width="166" height="42" rx="21" fill="#22c55e"/>
  <text x="921" y="89" class="w" font-size="18" font-weight="700" text-anchor="middle">OPEN SOURCE</text>

  <!-- METHODOLOGY FLOW -->
  <text x="44" y="262" class="m" font-size="16" font-weight="700" letter-spacing="1">DA IDEIA AO CÓDIGO, RASTREÁVEL</text>
  <g font-size="20" font-weight="700" text-anchor="middle">
    <rect x="40"  y="278" width="216" height="66" rx="12" fill="#7c3aed"/>
    <text x="148" y="312" class="w">Lean Inception</text><text x="148" y="333" class="w" font-size="13" font-weight="400">descobrir</text>
    <rect x="286" y="278" width="216" height="66" rx="12" fill="#14b8a6"/>
    <text x="394" y="312" class="w">DDD</text><text x="394" y="333" class="w" font-size="13" font-weight="400">modelar</text>
    <rect x="532" y="278" width="216" height="66" rx="12" fill="#f97316"/>
    <text x="640" y="312" class="w">TDD</text><text x="640" y="333" class="w" font-size="13" font-weight="400">desenhar</text>
    <rect x="778" y="278" width="216" height="66" rx="12" fill="#ec4899"/>
    <text x="886" y="312" class="w">SDD</text><text x="886" y="333" class="w" font-size="13" font-weight="400">implementar</text>
  </g>
  <g fill="#94a3b8" font-size="26" font-weight="700" text-anchor="middle">
    <text x="271" y="320">›</text><text x="517" y="320">›</text><text x="763" y="320">›</text>
  </g>

  <!-- STRUCTURE (hierarquia, skills expandidas) -->
  <text x="44" y="392" class="m" font-size="16" font-weight="700" letter-spacing="1">ESTRUTURA DO PROJETO — 14 SKILLS</text>
  <rect x="40" y="408" width="1000" height="592" rx="16" fill="#ffffff" stroke="#e2e8f0"/>

  <!-- connectors -->
  <g stroke="#cbd5e1" stroke-width="2" fill="none">
    <!-- spine nivel 1 -->
    <path d="M86 460 V960"/>
    <path d="M86 476 H122"/>
    <path d="M86 734 H122"/>
    <path d="M86 864 H122"/>
    <path d="M86 896 H122"/>
    <path d="M86 928 H122"/>
    <path d="M86 960 H122"/>
    <!-- spine .claude/skills (nivel 2) -->
    <path d="M150 498 V700"/>
    <path d="M150 508 H168"/><path d="M150 540 H168"/><path d="M150 572 H168"/><path d="M150 604 H168"/>
    <path d="M150 636 H168"/><path d="M150 668 H168"/><path d="M150 700 H168"/>
    <!-- spine docs/ (nivel 2) -->
    <path d="M150 752 V830"/>
    <path d="M150 766 H176"/><path d="M150 798 H176"/><path d="M150 830 H176"/>
  </g>

  <!-- root -->
  <rect x="72" y="435" width="28" height="20" rx="4" fill="#0e1430"/><rect x="72" y="431" width="12" height="5" rx="2" fill="#0e1430"/>
  <text x="112" y="452" class="t mono" font-size="21" font-weight="700">projeto/</text>

  <!-- .claude/skills/ (pai) -->
  <rect x="124" y="465" width="28" height="20" rx="4" fill="#7c3aed"/><rect x="124" y="461" width="12" height="5" rx="2" fill="#7c3aed"/>
  <text x="162" y="482" class="t mono" font-size="20" font-weight="700">.claude/skills/</text>
  <text x="470" y="482" class="m" font-size="17">14 skills — a esteira por responsabilidade</text>

  <!-- 14 skills, 2 colunas -->
  <g>
    <text x="176" y="514" class="cv">›</text><text x="196" y="514" class="sk">kickoff</text>
    <text x="176" y="546" class="cv">›</text><text x="196" y="546" class="sk">mapear</text>
    <text x="176" y="578" class="cv">›</text><text x="196" y="578" class="sk">diagramar</text>
    <text x="176" y="610" class="cv">›</text><text x="196" y="610" class="sk">roadmap</text>
    <text x="176" y="642" class="cv">›</text><text x="196" y="642" class="sk">camada-agentica</text>
    <text x="176" y="674" class="cv">›</text><text x="196" y="674" class="sk">nova-feature</text>
    <text x="176" y="706" class="cv">›</text><text x="196" y="706" class="sk">validar</text>

    <text x="470" y="514" class="cv">›</text><text x="490" y="514" class="sk">revisar-pr</text>
    <text x="470" y="546" class="cv">›</text><text x="490" y="546" class="sk">setup-ci</text>
    <text x="470" y="578" class="cv">›</text><text x="490" y="578" class="sk">metricas</text>
    <text x="470" y="610" class="cv">›</text><text x="490" y="610" class="sk">auditar</text>
    <text x="470" y="642" class="cv">›</text><text x="490" y="642" class="sk">evals</text>
    <text x="470" y="674" class="cv">›</text><text x="490" y="674" class="sk">integracoes</text>
    <text x="470" y="706" class="cv">›</text><text x="490" y="706" class="sk">handoff</text>
  </g>

  <!-- docs/ (pai) -->
  <rect x="124" y="723" width="28" height="20" rx="4" fill="#0ea5e9"/><rect x="124" y="719" width="12" height="5" rx="2" fill="#0ea5e9"/>
  <text x="162" y="740" class="t mono" font-size="20" font-weight="700">docs/</text>
  <text x="470" y="740" class="m" font-size="17">documentação viva, por concern</text>

  <rect x="182" y="749" width="28" height="20" rx="4" fill="#22c55e"/><rect x="182" y="745" width="12" height="5" rx="2" fill="#22c55e"/>
  <text x="220" y="766" class="t mono" font-size="19" font-weight="700">product/</text>
  <text x="470" y="766" class="m" font-size="17">vision · journeys · features · MVP · roadmap</text>

  <rect x="182" y="781" width="28" height="20" rx="4" fill="#ec4899"/><rect x="182" y="777" width="12" height="5" rx="2" fill="#ec4899"/>
  <text x="220" y="798" class="t mono" font-size="19" font-weight="700">architecture/</text>
  <text x="470" y="798" class="m" font-size="17">overview (5 eixos) · context-map · diagrams · adr</text>

  <rect x="182" y="813" width="28" height="20" rx="4" fill="#14b8a6"/><rect x="182" y="809" width="12" height="5" rx="2" fill="#14b8a6"/>
  <text x="220" y="830" class="t mono" font-size="19" font-weight="700">engineering/</text>
  <text x="470" y="830" class="m" font-size="17">TESTING · metrics · integrations · agentic-layer</text>

  <!-- .github + scripts/ -->
  <rect x="124" y="847" width="28" height="20" rx="4" fill="#3b82f6"/><rect x="124" y="843" width="12" height="5" rx="2" fill="#3b82f6"/>
  <text x="162" y="864" class="t mono" font-size="20" font-weight="700">.github + scripts/</text>
  <text x="470" y="864" class="m" font-size="17">CI da esteira: auditoria + eval de fidelidade</text>

  <!-- specs/ -->
  <rect x="124" y="879" width="28" height="20" rx="4" fill="#f97316"/><rect x="124" y="875" width="12" height="5" rx="2" fill="#f97316"/>
  <text x="162" y="896" class="t mono" font-size="20" font-weight="700">specs/</text>
  <text x="470" y="896" class="m" font-size="17">feature: spec · design · domain · tasks (+ quick)</text>

  <!-- src/ -->
  <rect x="124" y="911" width="28" height="20" rx="4" fill="#64748b"/><rect x="124" y="907" width="12" height="5" rx="2" fill="#64748b"/>
  <text x="162" y="928" class="t mono" font-size="20" font-weight="700">src/</text>
  <text x="470" y="928" class="m" font-size="17">estrutura em camadas (DDD tático)</text>

  <!-- CLAUDE.md -->
  <rect x="126" y="943" width="22" height="24" rx="3" fill="#0e1430"/>
  <text x="162" y="960" class="t mono" font-size="20" font-weight="700">CLAUDE.md</text>
  <text x="470" y="960" class="m" font-size="17">regras do agente — contexto base (alwaysApply)</text>

  <!-- DIFFERENTIATORS -->
  <text x="44" y="1044" class="m" font-size="16" font-weight="700" letter-spacing="1">POR QUE É DIFERENTE</text>
  <g>
    <rect x="40"  y="1062" width="487" height="118" rx="14" fill="#ffffff" stroke="#e2e8f0"/>
    <circle cx="80" cy="1098" r="15" fill="#3b82f6"/>
    <text x="108" y="1105" class="t" font-size="22" font-weight="700">A esteira se valida sozinha</text>
    <text x="64" y="1141" class="m" font-size="17">Auditoria estrutural + eval de fidelidade</text>
    <text x="64" y="1163" class="m" font-size="17">spec→código rodando na CI (gate de PR).</text>

    <rect x="553" y="1062" width="487" height="118" rx="14" fill="#ffffff" stroke="#e2e8f0"/>
    <circle cx="593" cy="1098" r="15" fill="#7c3aed"/>
    <text x="621" y="1105" class="t" font-size="22" font-weight="700">Da ideia ao código</text>
    <text x="577" y="1141" class="m" font-size="17">Lean Inception + DDD + Technical Design</text>
    <text x="577" y="1163" class="m" font-size="17">Docs + SDD numa única esteira.</text>

    <rect x="40"  y="1192" width="487" height="118" rx="14" fill="#ffffff" stroke="#e2e8f0"/>
    <circle cx="80" cy="1228" r="15" fill="#f97316"/>
    <text x="108" y="1235" class="t" font-size="22" font-weight="700">MCPs com segurança</text>
    <text x="64" y="1271" class="m" font-size="17">Jira, Confluence, Notion — com trava de</text>
    <text x="64" y="1293" class="m" font-size="17">conta/workspace (não vaza no pessoal).</text>

    <rect x="553" y="1192" width="487" height="118" rx="14" fill="#ffffff" stroke="#e2e8f0"/>
    <circle cx="593" cy="1228" r="15" fill="#22c55e"/>
    <text x="621" y="1235" class="t" font-size="22" font-weight="700">Continuidade &amp; métricas</text>
    <text x="577" y="1271" class="m" font-size="17">STATE/handoff entre sessões + Lead Time,</text>
    <text x="577" y="1293" class="m" font-size="17">Throughput e maturidade de CD.</text>
  </g>

  <!-- FOOTER -->
  <rect x="40" y="1332" width="1000" height="76" rx="16" fill="#0e1430"/>
  <text x="72" y="1366" class="w" font-size="18" font-weight="700">Comece agora:</text>
  <text x="72" y="1392" class="mono" font-size="20" fill="#86efac">npx @igoruehara/spec-driven</text>
  <text x="1008" y="1366" class="w" font-size="16" text-anchor="end" opacity="0.7">100% open source</text>
  <text x="1008" y="1392" class="mono" font-size="16" fill="#93c5fd" text-anchor="end">github.com/igoruehara/spec-driven</text>
</svg>
